<svg width="155" height="112" viewBox="0 0 155 112" fill="none" xmlns="http://www.w3.org/2000/svg">
<path d="M71.5 13.5H153.5V110.5H1.5V1.5H71.5V13.5Z" fill="#3F119B"/>
<path d="M71.5 13.5H70V15H71.5V13.5ZM153.5 13.5H155V12H153.5V13.5ZM153.5 110.5V112H155V110.5H153.5ZM1.5 110.5H0V112H1.5V110.5ZM1.5 1.5V0H0V1.5H1.5ZM71.5 1.5H73V0H71.5V1.5ZM71.5 13.5H73V10.5H71.5H70V13.5H71.5ZM71.5 4.5H73V1.5H71.5H70V4.5H71.5ZM71.5 1.5V0H68.5833V1.5V3H71.5V1.5ZM62.75 1.5V0H56.9167V1.5V3H62.75V1.5ZM51.0833 1.5V0H45.25V1.5V3H51.0833V1.5ZM39.4167 1.5V0H33.5833V1.5V3H39.4167V1.5ZM27.75 1.5V0H21.9167V1.5V3H27.75V1.5ZM16.0833 1.5V0H10.25V1.5V3H16.0833V1.5ZM4.41667 1.5V0H1.5V1.5V3H4.41667V1.5ZM1.5 1.5H0V4.52778H1.5H3V1.5H1.5ZM1.5 10.5833H0V16.6389H1.5H3V10.5833H1.5ZM1.5 22.6944H0V28.75H1.5H3V22.6944H1.5ZM1.5 34.8056H0V40.8611H1.5H3V34.8056H1.5ZM1.5 46.9167H0V52.9722H1.5H3V46.9167H1.5ZM1.5 59.0278H0V65.0833H1.5H3V59.0278H1.5ZM1.5 71.1389H0V77.1945H1.5H3V71.1389H1.5ZM1.5 83.25H0V89.3056H1.5H3V83.25H1.5ZM1.5 95.3611H0V101.417H1.5H3V95.3611H1.5ZM1.5 107.472H0V110.5H1.5H3V107.472H1.5ZM1.5 110.5V112H4.42308V110.5V109H1.5V110.5ZM10.2692 110.5V112H16.1154V110.5V109H10.2692V110.5ZM21.9615 110.5V112H27.8077V110.5V109H21.9615V110.5ZM33.6538 110.5V112H39.5V110.5V109H33.6538V110.5ZM45.3462 110.5V112H51.1923V110.5V109H45.3462V110.5ZM57.0385 110.5V112H62.8846V110.5V109H57.0385V110.5ZM68.7308 110.5V112H74.5769V110.5V109H68.7308V110.5ZM80.4231 110.5V112H86.2692V110.5V109H80.4231V110.5ZM92.1154 110.5V112H97.9615V110.5V109H92.1154V110.5ZM103.808 110.5V112H109.654V110.5V109H103.808V110.5ZM115.5 110.5V112H121.346V110.5V109H115.5V110.5ZM127.192 110.5V112H133.038V110.5V109H127.192V110.5ZM138.885 110.5V112H144.731V110.5V109H138.885V110.5ZM150.577 110.5V112H153.5V110.5V109H150.577V110.5ZM153.5 110.5H155V107.469H153.5H152V110.5H153.5ZM153.5 101.406H155V95.3438H153.5H152V101.406H153.5ZM153.5 89.2812H155V83.2188H153.5H152V89.2812H153.5ZM153.5 77.1562H155V71.0938H153.5H152V77.1562H153.5ZM153.5 65.0312H155V58.9688H153.5H152V65.0312H153.5ZM153.5 52.9062H155V46.8438H153.5H152V52.9062H153.5ZM153.5 40.7812H155V34.7188H153.5H152V40.7812H153.5ZM153.5 28.6562H155V22.5938H153.5H152V28.6562H153.5ZM153.5 16.5312H155V13.5H153.5H152V16.5312H153.5ZM153.5 13.5V12H150.571V13.5V15H153.5V13.5ZM144.714 13.5V12H138.857V13.5V15H144.714V13.5ZM133 13.5V12H127.143V13.5V15H133V13.5ZM121.286 13.5V12H115.429V13.5V15H121.286V13.5ZM109.571 13.5V12H103.714V13.5V15H109.571V13.5ZM97.8571 13.5V12H92V13.5V15H97.8571V13.5ZM86.1429 13.5V12H80.2857V13.5V15H86.1429V13.5ZM74.4286 13.5V12H71.5V13.5V15H74.4286V13.5Z" fill="#3F119B"/>
<rect x="1.5" y="13.5" width="152" height="3" fill="#977CCD"/>
</svg>
