<svg width="56" height="74" viewBox="0 0 56 74" fill="none" xmlns="http://www.w3.org/2000/svg">
<rect x="1.33398" y="1.33398" width="53.3333" height="71.1111" fill="#977CCD"/>
<rect x="1.33398" y="1.33398" width="53.3333" height="71.1111" stroke="#977CCD" stroke-width="2.66667" stroke-dasharray="5.33 5.33"/>
<rect x="4.88889" y="4.88889" width="46.2222" height="64" stroke="#FFFFED" stroke-width="1.77778"/>
<path d="M15.3181 42.6804L17.2886 44.4839L25.1704 51.6979C26.7641 53.155 29.2374 53.155 30.8311 51.6979L40.7052 42.6804M13.4821 64.4444H42.5192C44.8102 64.4444 46.6673 62.6252 46.6673 60.381V40.0635C46.6673 37.8193 44.8102 36 42.5192 36H13.4821C11.1912 36 9.33398 37.8193 9.33398 40.0635V60.381C9.33398 62.6252 11.1912 64.4444 13.4821 64.4444Z" stroke="#FFFFED" stroke-width="1.77778" stroke-linecap="square" stroke-dasharray="2.67 2.67"/>
<path d="M29.7394 21.6156C29.7394 22.6403 29.4827 23.5168 28.9579 24.2335L28.9579 24.2335C28.4296 24.9662 27.6781 25.334 26.7273 25.334C25.9968 25.334 25.4062 25.0794 24.9807 24.5626L24.9802 24.5619L24.9797 24.5613C24.964 24.5419 24.9486 24.5222 24.9335 24.5024C24.8032 24.6462 24.656 24.7706 24.502 24.8756C24.0595 25.1773 23.54 25.334 23.1504 25.334C22.774 25.334 22.4612 25.208 22.2449 24.9389L22.2424 24.9357L22.2399 24.9325C22.0329 24.6519 21.9856 24.2523 22.0448 23.7781L22.2133 22.3916L19.8376 22.3916L19.4937 25.0434L19.4713 25.2158L18.4022 25.2158L18.4304 24.9947L19.0982 19.7564L17.865 19.7564C17.9764 19.9494 18.034 20.1639 18.034 20.3985C18.034 20.8507 17.892 21.2371 17.5972 21.5407C17.4343 21.7084 17.23 21.8455 16.9882 21.9547C17.1624 22.0354 17.3146 22.1408 17.442 22.273L17.442 22.273C17.7124 22.5448 17.8509 22.8724 17.8509 23.2463C17.8509 23.8967 17.6132 24.4219 17.1265 24.7951L17.1265 24.7951C16.6591 25.1598 16.0616 25.334 15.3517 25.334C14.5981 25.334 13.9851 25.1058 13.5402 24.6313L13.5396 24.6306L13.539 24.6299C13.0992 24.1522 12.8891 23.5224 12.8891 22.7618C12.8891 21.6975 13.1541 20.789 13.6958 20.0483L13.6961 20.048C14.2559 19.2861 15.0345 18.9016 16.0111 18.9016C16.1848 18.9016 16.3497 18.9125 16.5053 18.9348C16.646 18.9527 16.8266 18.9815 17.0544 19.0233C18.0547 19.2068 18.7099 19.1835 19.1278 19.1156C19.3366 19.0817 19.489 19.0362 19.5984 18.9978C19.654 18.9783 19.6984 18.9607 19.7386 18.9452C19.7714 18.9325 19.8197 18.9135 19.8633 18.9053L19.9431 18.8902L20.0116 18.9324L20.1459 19.0152L20.2544 19.082L20.2386 19.2055L19.925 21.655L22.3107 21.655L22.6187 19.1931L22.6404 19.0198L23.7101 19.0198L23.6821 19.2407L23.0838 23.9668L23.0839 23.9669C23.0527 24.2194 23.0756 24.3704 23.1163 24.4503C23.1344 24.486 23.1545 24.5044 23.1743 24.5156C23.1952 24.5274 23.229 24.5383 23.2848 24.5383C23.4218 24.5383 23.732 24.4495 24.0025 24.2528C24.2665 24.0609 24.4531 23.7964 24.429 23.4609L24.4158 23.2759C24.3801 23.0683 24.3625 22.8495 24.3625 22.6201C24.3625 21.5954 24.615 20.7189 25.1317 20.0022L25.1322 20.0015L25.1327 20.0009C25.6685 19.2699 26.4191 18.9017 27.3623 18.9016C28.1008 18.9017 28.6957 19.1601 29.1211 19.6849L29.1405 19.7088C29.5451 20.2128 29.7394 20.8538 29.7394 21.6156ZM13.8356 21.8664L13.8253 21.9347L13.8353 21.8685C13.8371 21.857 13.839 21.8455 13.8409 21.8341C13.8391 21.8448 13.8373 21.8556 13.8356 21.8664ZM16.7722 23.3054C16.7722 23.0232 16.6775 22.8155 16.4983 22.6606L16.4968 22.6593L16.4953 22.658C16.3195 22.5 16.0379 22.4007 15.6152 22.3918C15.1654 22.4349 14.6201 22.4647 13.9804 22.4815C13.9719 22.631 13.9677 22.7517 13.9677 22.8445C13.9677 23.3965 14.1023 23.8236 14.3534 24.1431C14.5973 24.4458 14.9229 24.5974 15.3517 24.5974C15.7998 24.5974 16.1366 24.4757 16.3842 24.2494L16.3852 24.2485L16.3862 24.2476C16.6389 24.0229 16.7722 23.7165 16.7722 23.3054ZM16.9554 20.4339C16.9554 20.2086 16.8778 20.0268 16.7219 19.876L16.7189 19.8731L16.7161 19.87C16.5832 19.7303 16.349 19.6382 15.9622 19.6382C15.4418 19.6382 15.0246 19.8402 14.6954 20.2579C14.392 20.6428 14.1795 21.1332 14.0645 21.7367C14.713 21.7315 15.2303 21.7045 15.619 21.6566L15.6203 21.6564C16.1 21.6003 16.4298 21.463 16.6388 21.2673C16.8432 21.0759 16.9554 20.8065 16.9554 20.4339ZM14.4664 20.2272C14.4612 20.2343 14.4561 20.2416 14.451 20.2487C14.4565 20.2411 14.4619 20.2334 14.4674 20.2258L14.4664 20.2272ZM14.6923 19.9585C14.6906 19.9602 14.6889 19.962 14.6872 19.9637C14.6897 19.9612 14.6921 19.9587 14.6946 19.9562L14.6923 19.9585ZM14.8092 19.85C14.7936 19.8633 14.7782 19.8769 14.7629 19.8909C14.7718 19.8828 14.7807 19.8747 14.7897 19.8669C14.7962 19.8612 14.8027 19.8556 14.8092 19.85L14.8092 19.85ZM14.9711 19.7274V19.7274V19.7274ZM17.1105 20.1193C17.1097 20.1168 17.1088 20.1143 17.108 20.1118C17.1114 20.1218 17.1146 20.1319 17.1177 20.142L17.1105 20.1193ZM17.6349 23.0692C17.6335 23.0596 17.632 23.0501 17.6304 23.0406L17.6304 23.0406C17.632 23.0501 17.6335 23.0596 17.6349 23.0692ZM19.6581 22.1946L19.2917 25.0189L19.2918 25.0189L19.6581 22.1946L19.6581 22.1946ZM19.9023 19.0986L20.0366 19.1813L19.6947 21.852L20.0366 19.1813L19.9023 19.0986ZM23.61 24.6727C23.6009 24.6757 23.5919 24.6786 23.583 24.6813C23.574 24.6841 23.5652 24.6867 23.5564 24.6893L23.5564 24.6893C23.574 24.6842 23.5919 24.6787 23.6101 24.6727L23.61 24.6727ZM23.7662 24.6134C23.78 24.6074 23.794 24.6013 23.808 24.5949C23.794 24.6013 23.78 24.6074 23.7662 24.6134ZM24.5665 22.6891L24.5682 22.7552C24.5682 22.7557 24.5682 22.7563 24.5683 22.7568C24.5675 22.7344 24.5669 22.7118 24.5665 22.6891ZM25.1579 24.4614C25.1519 24.4543 25.1459 24.4471 25.1399 24.4398C25.1341 24.4327 25.1284 24.4255 25.1226 24.4183C25.1283 24.4255 25.1341 24.4327 25.1399 24.4398C25.1459 24.4471 25.1519 24.4543 25.1579 24.4614ZM28.6607 21.4974C28.6607 20.9191 28.5289 20.4701 28.283 20.1342L28.2816 20.1323L28.2803 20.1303C28.0486 19.7975 27.7408 19.6382 27.3379 19.6382C26.7539 19.6383 26.2999 19.906 25.9645 20.4832L25.9642 20.4837L25.9639 20.4841C25.6198 21.0688 25.4411 21.8165 25.4411 22.7382C25.4411 23.3165 25.5689 23.7708 25.8083 24.1156L25.8301 24.1455C26.0585 24.4502 26.3596 24.5974 26.7518 24.5974C27.3459 24.5974 27.8031 24.3316 28.1374 23.7642C28.4821 23.1712 28.6607 22.4191 28.6607 21.4974ZM25.6042 24.1726C25.6081 24.1786 25.6118 24.1847 25.6158 24.1906L25.6166 24.1918C25.6124 24.1855 25.6083 24.179 25.6042 24.1726ZM26.6504 24.7912C26.6551 24.7915 26.6598 24.7919 26.6644 24.7921L26.6671 24.7923C26.6616 24.792 26.656 24.7916 26.6504 24.7912ZM27.7451 24.499C27.7216 24.5154 27.6978 24.5311 27.6736 24.5462C27.7059 24.5261 27.7375 24.5048 27.7686 24.4823L27.7451 24.499ZM27.9698 19.586C27.9363 19.5686 27.9019 19.5527 27.8667 19.5383C27.9021 19.5527 27.9366 19.5688 27.9704 19.5864L27.9698 19.586ZM28.3555 23.7888C28.3422 23.813 28.3286 23.837 28.3148 23.8608C28.313 23.8638 28.3112 23.8668 28.3094 23.8698C28.3112 23.8668 28.313 23.8638 28.3148 23.8608C28.3286 23.837 28.3422 23.813 28.3555 23.7888ZM28.4236 19.9847C28.4201 19.9799 28.4165 19.9753 28.413 19.9706C28.4168 19.9756 28.4207 19.9807 28.4244 19.9858L28.4236 19.9847ZM28.5464 20.1675C28.5439 20.1633 28.5413 20.1592 28.5388 20.155C28.5432 20.1622 28.5475 20.1695 28.5519 20.1768L28.5464 20.1675ZM28.8379 21.0612C28.834 21.0301 28.8296 20.9994 28.8248 20.969C28.8296 20.9994 28.834 21.0301 28.8379 21.0612ZM28.8528 21.2046C28.8504 21.1751 28.8477 21.1459 28.8445 21.1171C28.8477 21.1459 28.8504 21.1751 28.8528 21.2046ZM28.863 21.3984C28.8618 21.3513 28.8597 21.305 28.8568 21.2593C28.8597 21.305 28.8618 21.3513 28.863 21.3984ZM28.8607 21.7206C28.8612 21.7047 28.8617 21.6888 28.8621 21.6729L28.8622 21.6701C28.8618 21.687 28.8612 21.7038 28.8607 21.7206ZM28.8643 21.4974C28.8643 21.4645 28.8639 21.4319 28.8631 21.3996C28.8639 21.4319 28.8642 21.4645 28.8642 21.4974L28.8643 21.4974ZM39.9893 22.9864C39.9893 23.6791 39.7558 24.2535 39.2783 24.6894C38.8047 25.1218 38.2073 25.334 37.5023 25.334C36.8012 25.334 36.2476 25.1515 35.8934 24.7439C35.5489 24.3473 35.4129 23.8159 35.4551 23.1779C35.4564 23.1266 35.4669 23.017 35.4835 22.8645C35.502 22.6955 35.5296 22.4595 35.5662 22.1569C35.6348 21.5913 35.7353 20.7911 35.8678 19.7564L34.6991 19.7564C34.8104 19.9494 34.868 20.1639 34.868 20.3985C34.868 20.8507 34.726 21.2371 34.4312 21.5407C34.2683 21.7084 34.064 21.8455 33.8222 21.9547C33.9964 22.0354 34.1486 22.1408 34.276 22.273L34.276 22.273C34.5464 22.5448 34.6849 22.8724 34.6849 23.2463C34.6849 23.8967 34.4472 24.4219 33.9606 24.7951L33.9605 24.7951C33.4931 25.1598 32.8956 25.334 32.1857 25.334C31.4321 25.334 30.8191 25.1058 30.3742 24.6313L30.3736 24.6306L30.373 24.6299C29.9332 24.1522 29.7231 23.5224 29.7231 22.7618C29.7231 21.6975 29.9881 20.789 30.5298 20.0483L30.5301 20.048C31.0899 19.2862 31.8685 18.9016 32.8451 18.9016C32.9981 18.9016 33.1443 18.91 33.2834 18.9273L33.2814 18.9253L33.3103 18.9308C33.4211 18.9456 33.5273 18.9661 33.6285 18.9925L33.8912 19.0433C34.3191 19.1261 34.9834 19.1139 35.567 19.0672C35.8555 19.0442 36.1174 19.0134 36.3111 18.9838C36.4083 18.9689 36.4859 18.9547 36.5399 18.9426C36.5588 18.9383 36.5732 18.9345 36.5837 18.9316L36.6862 18.8414L36.8213 18.9432L36.9312 19.0259L37.0219 19.0941L37.0084 19.2045L36.7543 21.2844C37.1012 21.1835 37.4982 21.1351 37.9419 21.1351C38.527 21.1351 39.0217 21.2965 39.4074 21.6333L39.4257 21.649C39.8063 21.9827 39.9893 22.4365 39.9893 22.9864ZM30.6696 21.8664L30.6593 21.9347L30.6693 21.8685C30.6711 21.857 30.673 21.8455 30.6749 21.8341C30.6732 21.8448 30.6713 21.8556 30.6696 21.8664ZM33.6062 23.3054C33.6062 23.0232 33.5115 22.8155 33.3323 22.6606L33.3308 22.6593L33.3293 22.658C33.1535 22.5 32.8719 22.4007 32.4492 22.3918C31.9994 22.4349 31.4541 22.4647 30.8144 22.4815C30.8059 22.631 30.8018 22.7517 30.8018 22.8445C30.8018 23.3965 30.9363 23.8236 31.1874 24.1431C31.4313 24.4458 31.7569 24.5974 32.1857 24.5974C32.6338 24.5974 32.9706 24.4757 33.2182 24.2494L33.2192 24.2485L33.2202 24.2476C33.4729 24.0229 33.6062 23.7165 33.6062 23.3054ZM33.7894 20.4339C33.7894 20.2086 33.7118 20.0268 33.5559 19.876L33.5529 19.8731L33.5501 19.87C33.4172 19.7303 33.183 19.6382 32.7962 19.6382C32.2758 19.6382 31.8586 19.8402 31.5294 20.2579C31.2261 20.6428 31.0135 21.1332 30.8985 21.7367C31.547 21.7315 32.0643 21.7045 32.453 21.6566L32.4543 21.6564C32.934 21.6003 33.2638 21.463 33.4728 21.2673C33.6772 21.0759 33.7894 20.8065 33.7894 20.4339ZM31.3004 20.2272C31.2952 20.2343 31.2901 20.2416 31.285 20.2487C31.2905 20.2411 31.2959 20.2334 31.3014 20.2258L31.3004 20.2272ZM31.5263 19.9585C31.5246 19.9602 31.5229 19.962 31.5212 19.9637C31.5237 19.9612 31.5261 19.9587 31.5286 19.9562L31.5263 19.9585ZM31.6432 19.85C31.6276 19.8633 31.6122 19.8769 31.5969 19.8909C31.6058 19.8828 31.6147 19.8747 31.6237 19.8669C31.6302 19.8612 31.6367 19.8556 31.6432 19.85L31.6432 19.85ZM33.2771 21.9362C33.2471 21.9441 33.2165 21.9518 33.1854 21.9592L33.1381 21.9701L33.1847 21.9594C33.2159 21.952 33.2466 21.9443 33.2768 21.9363L33.2771 21.9362ZM33.6819 19.7185C33.6801 19.7167 33.6781 19.7149 33.6762 19.7131C33.6783 19.7151 33.6804 19.7171 33.6825 19.7191L33.6819 19.7185ZM33.9445 20.1193C33.9437 20.1168 33.9428 20.1143 33.942 20.1118C33.9454 20.1218 33.9486 20.1319 33.9517 20.142L33.9445 20.1193ZM34.4644 23.0406C34.464 23.0383 34.4636 23.036 34.4632 23.0338C34.464 23.038 34.4647 23.0422 34.4654 23.0465C34.465 23.0445 34.4647 23.0425 34.4644 23.0406ZM35.7125 22.6503C35.7103 22.6698 35.7081 22.6887 35.7059 22.7071C35.7081 22.6887 35.7103 22.6698 35.7125 22.6503ZM35.8302 21.6759C35.7947 21.962 35.7648 22.2078 35.7403 22.4133C35.766 22.1978 35.7977 21.9379 35.8354 21.6337L35.8302 21.6759ZM38.9107 22.9864C38.9107 22.6161 38.8016 22.3535 38.6064 22.1708C38.4103 21.9874 38.125 21.8835 37.7221 21.8835C37.3937 21.8835 37.0381 21.9434 36.6543 22.0673C36.6387 22.2135 36.6184 22.3778 36.5933 22.5599C36.569 22.7876 36.5486 22.9691 36.5322 23.1039L36.532 23.1053C36.524 23.1675 36.5181 23.217 36.5142 23.2541C36.5123 23.2726 36.511 23.2874 36.5102 23.2988C36.5097 23.3044 36.5095 23.3088 36.5093 23.3121C36.5092 23.3138 36.5092 23.315 36.5092 23.316V23.3251L36.5085 23.333C36.4697 23.8026 36.5518 24.1121 36.7088 24.302C36.8606 24.4857 37.1163 24.5974 37.5267 24.5974C37.9503 24.5974 38.2732 24.4514 38.5167 24.1619L38.5176 24.1608L38.5185 24.1598C38.7752 23.8631 38.9107 23.4774 38.9107 22.9864ZM37.4351 24.7925C37.4382 24.7926 37.4412 24.7928 37.4442 24.7929L37.4449 24.7929C37.4416 24.7928 37.4384 24.7926 37.4351 24.7925ZM40.2971 19.518L39.8319 20.7979L39.3607 19.5201L38.0381 19.0699L39.3585 18.6138L39.8237 17.334L40.2949 18.6118L43.1113 19.0699L40.2971 19.518ZM38.7246 22.0081C38.7203 22.0043 38.7159 22.0005 38.7115 21.9967C38.7161 22.0007 38.7208 22.0047 38.7254 22.0088L38.7246 22.0081Z" fill="#FFFFED"/>
</svg>
